<svg width="314" height="164" viewBox="0 0 314 164" fill="none" xmlns="http://www.w3.org/2000/svg">
<path d="M151.763 85.5912C150.491 101.591 153.707 118.999 165.067 130.391C169.995 135.319 176.163 138.831 182.483 141.759C221.859 159.967 276.227 160.279 304.083 123.279C319.531 102.783 312.995 71.2792 302.563 49.3912C293.571 30.5192 278.019 14.6152 258.827 6.31119C232.147 -5.26481 207.715 -0.592813 186.531 17.6712C166.803 34.6952 153.827 59.5592 151.763 85.5912Z" fill="#FFCB00"/>
<path fill-rule="evenodd" clip-rule="evenodd" d="M259.5 24.4274C259.5 24.9829 259.282 25.5161 258.891 25.9114L246.579 38.2154C241.091 43.6394 242.483 53.1914 245.971 61.4154L246.012 61.5111C248.119 66.5129 250.287 71.6581 249.603 79.6074C249.012 86.3733 245.925 92.836 242.91 99.1489L242.418 100.179C241.527 102.041 240.684 103.804 239.915 105.567C242.171 108.311 246.267 113.711 247.419 118.175C248.451 122.207 247.411 126.127 244.715 128.407C243.416 129.534 241.755 130.159 240.035 130.167C239.087 130.166 238.15 129.968 237.283 129.583C235.275 128.687 231.875 126.031 231.611 118.215C231.523 114.743 232.235 111.015 233.923 106.559C232.987 105.535 232.059 104.583 231.187 103.783C226.648 99.6115 222.985 94.5776 220.411 88.9754C219.025 86.1015 218.127 83.0165 217.755 79.8474C217.043 71.7034 219.411 66.0634 221.499 61.0954C221.747 60.5114 221.987 59.9274 222.227 59.3434C224.279 54.3332 224.188 51.7054 224.105 49.3167C224.086 48.7723 224.068 48.2403 224.075 47.6954C224.072 46.1595 224.431 44.6446 225.124 43.2741C225.817 41.9037 226.825 40.7165 228.064 39.8094C229.304 38.9023 230.74 38.301 232.256 38.0546C233.772 37.8081 235.324 37.9235 236.787 38.3914C237.631 38.6541 238.531 38.6788 239.387 38.4628C240.244 38.2469 241.025 37.7986 241.643 37.1674L243.395 35.3754L255.907 22.9434C256.303 22.5481 256.84 22.3262 257.399 22.3262C257.959 22.3262 258.495 22.5481 258.891 22.9434C259.282 23.3386 259.5 23.8718 259.5 24.4274ZM241.371 124.439C242.291 123.663 243.043 121.943 242.403 119.447C241.883 117.431 240.179 114.391 237.795 111.223C237.095 113.424 236.752 115.722 236.779 118.031C236.923 122.255 238.219 124.319 239.379 124.831C239.714 124.961 240.079 124.992 240.432 124.923C240.784 124.854 241.11 124.686 241.371 124.439ZM238.13 97.1284C240.981 91.194 243.932 85.0531 244.443 79.1434C245.022 72.5204 243.184 68.1568 241.26 63.59L241.203 63.4554C240.899 62.7434 240.603 62.0314 240.307 61.3114C238.24 56.2286 238.304 53.1853 238.376 49.7264L238.376 49.7245C238.389 49.0736 238.403 48.408 238.403 47.7114C238.404 47.0411 238.258 46.3788 237.975 45.7711C237.693 45.1634 237.28 44.6252 236.767 44.1942C236.253 43.7632 235.652 43.4501 235.004 43.2768C234.357 43.1036 233.679 43.0744 233.019 43.1914C231.947 43.4005 230.982 43.978 230.291 44.824C229.6 45.67 229.226 46.731 229.235 47.8234C229.233 48.2953 229.243 48.7703 229.253 49.2582L229.253 49.2597C229.313 52.1376 229.383 55.466 227.003 61.2794L226.259 63.0794C224.219 67.9274 222.299 72.5114 222.891 79.3834C223.215 81.9695 223.967 84.4838 225.115 86.8234C227.405 91.8042 230.669 96.2761 234.715 99.9754C235.171 100.407 235.643 100.863 236.123 101.351C236.649 100.208 237.197 99.0702 237.739 97.9418L237.741 97.9373C237.866 97.6775 237.991 97.4181 238.115 97.1594L238.13 97.1284Z" fill="#4368F5"/>
<path fill-rule="evenodd" clip-rule="evenodd" d="M108.746 108.335H102.946C102.772 108.335 102.605 108.405 102.482 108.528C102.359 108.651 102.29 108.817 102.29 108.991V162.063C102.29 162.238 102.359 162.406 102.482 162.53C102.604 162.654 102.771 162.725 102.946 162.727H107.522C107.659 162.727 107.792 162.685 107.904 162.606C108.015 162.527 108.1 162.416 108.146 162.287L109.498 158.527L109.674 158.711C111.15 160.217 112.923 161.399 114.88 162.184C116.837 162.969 118.935 163.339 121.042 163.271C131.258 163.271 138.394 155.367 138.394 144.071C138.394 132.775 131.258 124.871 121.042 124.871C118.934 124.802 116.835 125.173 114.877 125.959C112.92 126.746 111.148 127.931 109.674 129.439L109.402 129.719V108.991C109.402 108.817 109.333 108.651 109.21 108.528C109.087 108.405 108.92 108.335 108.746 108.335ZM120.19 131.935C126.5 131.937 130.586 136.689 130.586 144.047C130.586 151.407 126.506 156.159 120.186 156.159C113.866 156.159 109.786 151.407 109.786 144.047C109.786 136.689 113.88 131.937 120.19 131.935Z" fill="#4368F5"/>
<path d="M1.39323 108.343H7.27324C7.36005 108.341 7.44642 108.356 7.52735 108.388C7.60827 108.419 7.68213 108.467 7.74464 108.527C7.80715 108.587 7.85707 108.659 7.89151 108.739C7.92594 108.819 7.94421 108.905 7.94524 108.991V137.847C7.94355 138.041 8.00083 138.23 8.10945 138.39C8.21806 138.55 8.37287 138.674 8.55324 138.743C8.73537 138.816 8.93502 138.831 9.12621 138.789C9.3174 138.746 9.49129 138.646 9.62524 138.503L21.6253 125.583C21.7533 125.45 21.9286 125.373 22.1133 125.367H27.4973C27.5505 125.367 27.6032 125.378 27.6522 125.399C27.7013 125.419 27.7457 125.449 27.783 125.487C27.8202 125.525 27.8495 125.57 27.8692 125.62C27.8888 125.669 27.8983 125.722 27.8973 125.775V129.159C27.8957 129.262 27.859 129.361 27.7933 129.439L16.8813 141.207L16.7933 141.303L29.4093 158.783V162.319C29.4093 162.426 29.3674 162.529 29.2926 162.605C29.2178 162.681 29.1161 162.725 29.0093 162.727H23.7533C23.6501 162.727 23.5485 162.702 23.4567 162.655C23.365 162.607 23.2857 162.539 23.2253 162.455L12.5692 147.583C12.4848 147.465 12.3748 147.367 12.2475 147.296C12.1201 147.225 11.9786 147.184 11.8332 147.175H11.7772C11.6426 147.175 11.5094 147.203 11.3866 147.258C11.2638 147.314 11.1542 147.394 11.0652 147.495L8.19324 150.591C8.03527 150.771 7.94721 151.001 7.94524 151.239V162.071C7.94526 162.159 7.92778 162.246 7.89382 162.326C7.85985 162.407 7.8101 162.48 7.74748 162.541C7.68486 162.602 7.61064 162.65 7.52919 162.682C7.44775 162.714 7.36072 162.73 7.27324 162.727H5.42523C5.31517 162.725 5.20981 162.682 5.12923 162.607L0.865224 158.351C0.826181 158.315 0.795327 158.27 0.774656 158.22C0.753985 158.171 0.743958 158.117 0.745224 158.063V108.991C0.745224 108.82 0.813495 108.655 0.935019 108.533C1.05654 108.412 1.22136 108.343 1.39323 108.343Z" fill="#4368F5"/>
<path fill-rule="evenodd" clip-rule="evenodd" d="M30.7139 143.991C30.7139 133.055 38.5219 124.791 48.9219 124.791C59.2979 124.791 67.1459 133.087 67.1459 144.047C67.1459 155.007 59.3059 163.191 48.9219 163.191C38.5379 163.191 30.7139 154.927 30.7139 143.991ZM38.2899 144.015C38.2899 152.383 43.6339 156.127 48.9219 156.127V156.159C54.2099 156.159 59.5459 152.415 59.5459 144.015C59.5459 137.991 56.2659 131.903 48.9219 131.903C43.6339 131.903 38.2899 135.647 38.2899 144.015Z" fill="#4368F5"/>
<path d="M73.3134 109.319H79.1454C79.3194 109.319 79.4862 109.388 79.6093 109.511C79.7323 109.634 79.8014 109.801 79.8014 109.975V162.063C79.8014 162.238 79.7325 162.406 79.6097 162.53C79.4869 162.654 79.3201 162.725 79.1454 162.727H76.4094C76.2355 162.727 76.069 162.658 75.9454 162.535L72.8494 159.423C72.787 159.364 72.7377 159.291 72.7046 159.212C72.6716 159.132 72.6555 159.046 72.6574 158.959V109.975C72.6574 109.801 72.7265 109.634 72.8495 109.511C72.9725 109.388 73.1394 109.319 73.3134 109.319Z" fill="#4368F5"/>
<path d="M94.3217 111.599H88.3777C88.0154 111.599 87.7217 111.893 87.7217 112.255V118.183C87.7217 118.545 88.0154 118.839 88.3777 118.839H94.3217C94.684 118.839 94.9777 118.545 94.9777 118.183V112.255C94.9777 111.893 94.684 111.599 94.3217 111.599Z" fill="#4368F5"/>
<path d="M91.6656 162.727C91.4918 162.726 91.3252 162.657 91.2016 162.535L88.0896 159.407C88.0272 159.347 87.9779 159.275 87.9449 159.195C87.9118 159.115 87.8957 159.03 87.8976 158.943V126.023C87.8976 125.849 87.9667 125.682 88.0897 125.559C88.2128 125.436 88.3796 125.367 88.5536 125.367H94.3456C94.5196 125.367 94.6865 125.436 94.8095 125.559C94.9325 125.682 95.0016 125.849 95.0016 126.023V162.063C95.0016 162.238 94.9328 162.406 94.81 162.53C94.6872 162.654 94.5203 162.725 94.3456 162.727H91.6656Z" fill="#4368F5"/>
<path d="M175.115 111.599H169.171C168.808 111.599 168.515 111.893 168.515 112.255V118.183C168.515 118.545 168.808 118.839 169.171 118.839H175.115C175.477 118.839 175.771 118.545 175.771 118.183V112.255C175.771 111.893 175.477 111.599 175.115 111.599Z" fill="#4368F5"/>
<path d="M172.456 162.727C172.283 162.726 172.116 162.657 171.992 162.535L168.88 159.407C168.758 159.284 168.689 159.117 168.688 158.943V126.023C168.691 125.848 168.761 125.682 168.886 125.559C169.01 125.436 169.178 125.367 169.352 125.367H175.145C175.318 125.367 175.485 125.436 175.608 125.559C175.731 125.682 175.801 125.849 175.801 126.023V162.063C175.801 162.238 175.732 162.406 175.609 162.53C175.486 162.654 175.319 162.725 175.145 162.727H172.456Z" fill="#4368F5"/>
<path d="M162.803 124.951C162.06 124.828 161.308 124.761 160.555 124.751C158.76 124.739 156.982 125.095 155.331 125.799C153.679 126.502 152.19 127.537 150.955 128.839L150.787 129.015L149.555 125.815C149.509 125.691 149.426 125.584 149.318 125.508C149.209 125.432 149.08 125.391 148.947 125.391H144.235C144.061 125.391 143.894 125.46 143.771 125.583C143.648 125.706 143.579 125.873 143.579 126.047V162.047C143.579 162.222 143.648 162.39 143.771 162.514C143.894 162.638 144.06 162.709 144.235 162.711H150.035C150.21 162.709 150.377 162.638 150.499 162.514C150.622 162.39 150.691 162.222 150.691 162.047V141.863C150.691 135.551 153.763 131.935 159.123 131.935H162.563C162.734 131.933 162.897 131.866 163.019 131.747C163.141 131.627 163.213 131.466 163.219 131.295L163.331 125.607C163.337 125.453 163.287 125.301 163.19 125.18C163.093 125.06 162.956 124.978 162.803 124.951Z" fill="#4368F5"/>
<path d="M209.089 91.5835C208.749 91.5853 208.413 91.5197 208.098 91.3906C207.784 91.2616 207.498 91.0715 207.257 90.8315C205.333 88.9101 203.806 86.628 202.764 84.1159C201.723 81.6038 201.187 78.911 201.187 76.1915C201.187 73.472 201.723 70.7792 202.764 68.2671C203.806 65.7551 205.333 63.473 207.257 61.5515C207.745 61.0667 208.406 60.7956 209.094 60.7979C209.782 60.8001 210.44 61.0755 210.925 61.5635C211.41 62.0515 211.681 62.7121 211.679 63.4C211.677 64.0879 211.401 64.7467 210.913 65.2315C209.473 66.67 208.33 68.3785 207.55 70.2591C206.77 72.1397 206.369 74.1556 206.369 76.1915C206.369 78.2274 206.77 80.2434 207.55 82.124C208.33 84.0046 209.473 85.713 210.913 87.1515C211.278 87.5131 211.527 87.9748 211.628 88.478C211.73 88.9812 211.68 89.5033 211.485 89.978C211.289 90.4528 210.957 90.8588 210.531 91.1446C210.104 91.4305 209.603 91.5832 209.089 91.5835Z" fill="#4368F5"/>
<path d="M199.751 99.6998C200.067 99.8303 200.405 99.8968 200.747 99.8955C201.085 99.8954 201.42 99.8282 201.731 99.6977C202.043 99.5672 202.326 99.3761 202.563 99.1355C202.804 98.8954 202.996 98.6099 203.127 98.2955C203.257 97.9812 203.325 97.644 203.325 97.3035C203.325 96.963 203.257 96.6259 203.127 96.3115C202.996 95.9971 202.804 95.7117 202.563 95.4715C200.03 92.941 198.021 89.9361 196.65 86.6286C195.279 83.3211 194.574 79.7759 194.574 76.1955C194.574 72.6152 195.279 69.0699 196.65 65.7624C198.021 62.455 200.03 59.4501 202.563 56.9195C203.051 56.4347 203.326 55.7759 203.329 55.088C203.331 54.4001 203.06 53.7395 202.575 53.2515C202.09 52.7635 201.431 52.4881 200.744 52.4859C200.056 52.4836 199.395 52.7547 198.907 53.2395C195.893 56.2527 193.502 59.8303 191.87 63.7677C190.239 67.7052 189.399 71.9255 189.399 76.1875C189.399 80.4496 190.239 84.6699 191.87 88.6073C193.502 92.5448 195.893 96.1223 198.907 99.1355C199.148 99.3776 199.435 99.5694 199.751 99.6998Z" fill="#4368F5"/>
<path d="M192.193 108.455C191.85 108.452 191.51 108.379 191.195 108.242C190.881 108.105 190.597 107.905 190.361 107.655C186.222 103.517 182.939 98.6032 180.699 93.1957C178.459 87.7882 177.306 81.9923 177.306 76.1392C177.306 70.286 178.459 64.4902 180.699 59.0827C182.939 53.6751 186.222 48.7618 190.361 44.6232C190.856 44.1772 191.503 43.9382 192.169 43.9555C192.835 43.9728 193.469 44.245 193.94 44.7161C194.411 45.1872 194.683 45.8211 194.701 46.4871C194.718 47.1531 194.479 47.8003 194.033 48.2952C190.373 51.9507 187.47 56.2917 185.489 61.0701C183.508 65.8485 182.488 70.9705 182.488 76.1432C182.488 81.3159 183.508 86.4379 185.489 91.2162C187.47 95.9946 190.373 100.336 194.033 103.991C194.396 104.354 194.642 104.817 194.742 105.32C194.842 105.823 194.79 106.345 194.593 106.819C194.396 107.292 194.062 107.697 193.635 107.981C193.208 108.265 192.706 108.416 192.193 108.415V108.455Z" fill="#4368F5"/>
<path d="M255.665 91.1446C256.092 91.4305 256.594 91.5832 257.107 91.5835C257.447 91.5853 257.784 91.5197 258.098 91.3906C258.413 91.2616 258.698 91.0715 258.939 90.8315C260.863 88.9101 262.39 86.628 263.432 84.1159C264.474 81.6038 265.01 78.911 265.01 76.1915C265.01 73.472 264.474 70.7792 263.432 68.2671C262.39 65.7551 260.863 63.473 258.939 61.5515C258.697 61.3115 258.411 61.1214 258.096 60.9921C257.781 60.8627 257.443 60.7968 257.103 60.7979C256.762 60.799 256.425 60.8672 256.111 60.9986C255.796 61.1299 255.511 61.3219 255.271 61.5635C255.031 61.8052 254.841 62.0917 254.712 62.4068C254.582 62.7219 254.516 63.0594 254.517 63.4C254.518 63.7406 254.587 64.0777 254.718 64.3919C254.849 64.7062 255.041 64.9915 255.283 65.2315C256.724 66.67 257.867 68.3785 258.646 70.2591C259.426 72.1397 259.828 74.1556 259.828 76.1915C259.828 78.2274 259.426 80.2434 258.646 82.124C257.867 84.0046 256.724 85.713 255.283 87.1515C254.919 87.5131 254.67 87.9748 254.568 88.478C254.466 88.9812 254.516 89.5033 254.712 89.978C254.907 90.4528 255.239 90.8588 255.665 91.1446Z" fill="#4368F5"/>
<path d="M265.419 99.8955C265.078 99.8975 264.741 99.8313 264.426 99.7008C264.111 99.5703 263.826 99.3781 263.587 99.1355C263.346 98.8954 263.154 98.6099 263.023 98.2955C262.893 97.9812 262.825 97.644 262.825 97.3035C262.825 96.963 262.893 96.6259 263.023 96.3115C263.154 95.9971 263.346 95.7117 263.587 95.4715C266.12 92.941 268.129 89.9361 269.5 86.6286C270.871 83.3211 271.577 79.7759 271.577 76.1955C271.577 72.6152 270.871 69.0699 269.5 65.7624C268.129 62.455 266.12 59.4501 263.587 56.9195C263.099 56.4347 262.824 55.7759 262.821 55.088C262.819 54.4001 263.09 53.7395 263.575 53.2515C264.06 52.7635 264.719 52.4881 265.406 52.4859C266.094 52.4836 266.755 52.7547 267.243 53.2395C270.257 56.2527 272.648 59.8303 274.28 63.7677C275.911 67.7052 276.751 71.9255 276.751 76.1875C276.751 80.4496 275.911 84.6699 274.28 88.6073C272.648 92.5448 270.257 96.1223 267.243 99.1355C266.76 99.6205 266.104 99.8939 265.419 99.8955Z" fill="#4368F5"/>
<path d="M272.56 108.021C272.987 108.305 273.489 108.456 274.002 108.455C274.342 108.457 274.68 108.391 274.995 108.26C275.309 108.13 275.595 107.938 275.834 107.695C279.973 103.557 283.256 98.6433 285.496 93.2357C287.736 87.8282 288.889 82.0324 288.889 76.1792C288.889 70.3261 287.736 64.5302 285.496 59.1227C283.256 53.7151 279.973 48.8018 275.834 44.6632C275.339 44.2172 274.692 43.9782 274.026 43.9955C273.36 44.0128 272.726 44.2851 272.255 44.7562C271.784 45.2272 271.511 45.8612 271.494 46.5271C271.477 47.1931 271.716 47.8403 272.162 48.3352C275.821 51.9907 278.725 56.3318 280.706 61.1102C282.687 65.8885 283.706 71.0105 283.706 76.1832C283.706 81.3559 282.687 86.4779 280.706 91.2563C278.725 96.0347 275.821 100.376 272.162 104.031C271.799 104.394 271.552 104.857 271.453 105.36C271.353 105.863 271.405 106.385 271.602 106.859C271.799 107.332 272.132 107.737 272.56 108.021Z" fill="#4368F5"/>
</svg>
