<?xml version="1.0" encoding="UTF-8"?>
<svg id="Layer_2" data-name="Layer 2" xmlns="http://www.w3.org/2000/svg" viewBox="0 0 1280 345.62">
  <defs>
    <style>
      .cls-1 {
        fill: #fff;
      }
    </style>
  </defs>
  <g id="text-logo">
    <g>
      <path class="cls-1" d="M400,345.62l-79.71-.12c-38.77-67.17-38.37-66.46-120.54-208.08l-48.67,84.3,82.53.12,23.09,40-128.27-.26-48.36,84-80.07.05S162.99,63.25,199.5,0c55.17,95.56,145.48,250.32,200.5,345.62Z"/>
      <path class="cls-1" d="M1280,345.62l-79.71-.12c-38.77-67.17-38.37-66.46-120.54-208.08l-48.67,84.3h83.73l23.09,40-129.46-.14-48.36,84-80.07.05S1042.99,63.25,1079.5,0c55.17,95.56,145.48,250.32,200.5,345.62Z"/>
      <rect class="cls-1" x="720" width="80" height="345.62"/>
      <rect class="cls-1" x="480" width="80" height="345.62"/>
      <polygon class="cls-1" points="720 221.71 720 137.71 565.79 137.71 720 221.71"/>
    </g>
  </g>
</svg>